<svg xmlns="http://www.w3.org/2000/svg" width="232.38" height="232.47" viewBox="0 0 232.38 232.47">
  <metadata><?xpacket begin="﻿" id="W5M0MpCehiHzreSzNTczkc9d"?>
<x:xmpmeta xmlns:x="adobe:ns:meta/" x:xmptk="Adobe XMP Core 5.6-c138 79.159824, 2016/09/14-01:09:01        ">
   <rdf:RDF xmlns:rdf="http://www.w3.org/1999/02/22-rdf-syntax-ns#">
      <rdf:Description rdf:about=""/>
   </rdf:RDF>
</x:xmpmeta>
                                                                                                    
                                                                                                    
                                                                                                    
                                                                                                    
                                                                                                    
                                                                                                    
                                                                                                    
                                                                                                    
                                                                                                    
                                                                                                    
                                                                                                    
                                                                                                    
                                                                                                    
                                                                                                    
                                                                                                    
                                                                                                    
                                                                                                    
                                                                                                    
                                                                                                    
                                                                                                    
                           
<?xpacket end="w"?></metadata>
<defs>
    <style>
      .cls-1 {
        fill: #d6be82;
        fill-rule: evenodd;
      }
    </style>
  </defs>
  <path id="scrollolol_scrollolol_" data-name="scrollolol scrollolol " class="cls-1" d="M1226.43,1998.29a5.538,5.538,0,0,0-3.42-2.61,7.506,7.506,0,0,0-5.08.83,7.583,7.583,0,0,0-3.9,3.49,4.6,4.6,0,0,0-.03,4.12,4.31,4.31,0,0,0,2.6,2.51,10.7,10.7,0,0,0,4.26.17l3.77-.33a6,6,0,0,1,2.65.16,2.8,2.8,0,0,1,1.6,1.56,2.85,2.85,0,0,1-.17,2.63,5.527,5.527,0,0,1-2.72,2.37,5.728,5.728,0,0,1-3.69.58,3.606,3.606,0,0,1-2.56-2.15l-2.23,1.05a5.822,5.822,0,0,0,4,3.33,8.5,8.5,0,0,0,5.65-.82,8.294,8.294,0,0,0,4.13-3.7,4.842,4.842,0,0,0,.12-4.38,4.9,4.9,0,0,0-2.68-2.71,8.621,8.621,0,0,0-3.94-.36l-4.41.49a5.776,5.776,0,0,1-2.45-.08,2.507,2.507,0,0,1-1.4-1.41,2.587,2.587,0,0,1,.08-2.37,4.834,4.834,0,0,1,2.42-2.13q3.42-1.6,5.17.82Zm20.01-8.45c-1.34,2.01-1.78,4.61-1.34,7.8a11.958,11.958,0,0,0,3.36,7.32,7.42,7.42,0,0,0,6.42,2.01,8.8,8.8,0,0,0,5.61-2.65,6.3,6.3,0,0,0,1.45-5.27l-2.7.37a4.272,4.272,0,0,1-.92,3.5,5.375,5.375,0,0,1-3.58,1.78,4.911,4.911,0,0,1-4.64-1.65,10.826,10.826,0,0,1-2.3-5.77,9.183,9.183,0,0,1,.84-6.04,5.1,5.1,0,0,1,3.86-2.67,4.9,4.9,0,0,1,3.3.65,6.389,6.389,0,0,1,2.4,2.69l2.62-.92a8.242,8.242,0,0,0-3.26-3.79A8.744,8.744,0,0,0,1246.44,1989.84Zm45.84-.17a7.5,7.5,0,0,0-4.87-2.45l-6.91-1.14-3.27,19.86,2.5,0.41,1.33-8.11,3.47,0.57,3.82,8.96,3.22,0.53-4.33-9.18a6.388,6.388,0,0,0,4.19-1.32,5.946,5.946,0,0,0,1.96-3.76A5.338,5.338,0,0,0,1292.28,1989.67Zm-10.93,6.83,1.29-7.86,4.42,0.73a4.612,4.612,0,0,1,3.06,1.58,4.214,4.214,0,0,1-.97,5.72,4.855,4.855,0,0,1-3.57.53Zm33.01,1.05q-3.345,1.29-5.66,5.82-2.31,4.5-1.41,7.96a8.029,8.029,0,0,0,4.41,5.26,8.12,8.12,0,0,0,6.84.54q3.345-1.245,5.67-5.79t1.4-8.02A8.824,8.824,0,0,0,1314.36,1997.55Zm8.81,6.44a9.736,9.736,0,0,1-1.3,6.17,9.5,9.5,0,0,1-4.22,4.6,5.885,5.885,0,0,1-7.93-4.07,9.534,9.534,0,0,1,1.3-6.1,9.713,9.713,0,0,1,4.22-4.66A5.759,5.759,0,0,1,1323.17,2003.99Zm23.57,12.27-1.84-1.74-13.83,14.62,8.34,7.9,1.52-1.61-6.51-6.16Zm19.09,22.64-1.34-2.15-17.06,10.67,6.09,9.74,1.87-1.17-4.75-7.59Zm10.35,26.26c-2.15-1.05-4.85-1.12-8.12-.21-3.25.91-5.51,2.37-6.8,4.38a8.026,8.026,0,0,0-.87,6.8,8.115,8.115,0,0,0,4.24,5.39q3.195,1.605,8.11.23c3.28-.91,5.56-2.39,6.84-4.42A8.816,8.816,0,0,0,1376.18,2065.16Zm1.25,10.85a9.757,9.757,0,0,1-5.41,3.22q-3.825,1.065-6.24.03a5.879,5.879,0,0,1-2.4-8.58q1.53-2.13,5.36-3.19a9.778,9.778,0,0,1,6.29-.07A5.768,5.768,0,0,1,1377.43,2076.01Zm6.98,25.74,0.04-2.53-20.12-.33-0.19,11.49,2.21,0.03,0.15-8.95Zm-5.45,27.56q-1.86-3.06-6.72-4.55c-3.23-.98-5.92-0.98-8.09.02a8.07,8.07,0,0,0-4.4,5.27,8.161,8.161,0,0,0,.67,6.83q1.83,3.06,6.71,4.56c3.25,0.99,5.97.98,8.14-.04a8.132,8.132,0,0,0,4.4-5.27A8.031,8.031,0,0,0,1378.96,2129.31Zm-4.78,9.81a9.737,9.737,0,0,1-6.3-.2q-3.8-1.155-5.27-3.33a5.872,5.872,0,0,1,2.6-8.53q2.43-.96,6.23.2a9.733,9.733,0,0,1,5.34,3.34,5.306,5.306,0,0,1,.72,4.87A5.386,5.386,0,0,1,1374.18,2139.12Zm-7.97,25.4,1.39-2.11-16.81-11.07-6.32,9.59,1.84,1.22,4.93-7.49Zm-47.39,36.98a5.528,5.528,0,0,0,3.64,2.29,7.518,7.518,0,0,0,4.98-1.29,7.674,7.674,0,0,0,3.57-3.83,4.636,4.636,0,0,0-.35-4.11,4.3,4.3,0,0,0-2.81-2.26,11.046,11.046,0,0,0-4.27.21l-3.72.68a6.031,6.031,0,0,1-2.65.08,2.913,2.913,0,0,1-1.81-4.04,5.573,5.573,0,0,1,2.49-2.61,5.764,5.764,0,0,1,3.63-.91,3.573,3.573,0,0,1,2.74,1.91l2.12-1.25a5.79,5.79,0,0,0-4.28-2.95,8.546,8.546,0,0,0-5.56,1.32,8.339,8.339,0,0,0-3.77,4.07,4.815,4.815,0,0,0,.28,4.37,4.938,4.938,0,0,0,2.92,2.46,8.793,8.793,0,0,0,3.96,0l4.34-.89a5.574,5.574,0,0,1,2.44-.14,2.46,2.46,0,0,1,1.54,1.27,2.644,2.644,0,0,1,.13,2.37,4.808,4.808,0,0,1-2.22,2.33q-3.255,1.92-5.22-.33Zm-19.16,10.24q1.725-3.18.63-7.88a12.013,12.013,0,0,0-4.02-6.99,7.443,7.443,0,0,0-6.57-1.42,8.794,8.794,0,0,0-5.35,3.16,6.281,6.281,0,0,0-.96,5.38l2.65-.62a4.284,4.284,0,0,1,.6-3.57,5.393,5.393,0,0,1,3.4-2.09,4.877,4.877,0,0,1,4.77,1.21,10.887,10.887,0,0,1,2.82,5.54,9.284,9.284,0,0,1-.28,6.1,5.148,5.148,0,0,1-3.6,3.01,4.932,4.932,0,0,1-3.35-.35,6.37,6.37,0,0,1-2.63-2.46l-2.53,1.15a8.2,8.2,0,0,0,3.59,3.48,7.969,7.969,0,0,0,5.44.39A7.844,7.844,0,0,0,1299.66,2211.74Zm-45.63,4.32a7.479,7.479,0,0,0,5.06,2l6.99,0.51,1.45-20.08-2.52-.18-0.59,8.2-3.51-.25-4.61-8.58-3.26-.24,5.15,8.75a6.41,6.41,0,0,0-4.06,1.7,5.945,5.945,0,0,0-1.61,3.92A5.3,5.3,0,0,0,1254.03,2216.06Zm10.26-7.79-0.57,7.94-4.47-.32a4.611,4.611,0,0,1-3.19-1.3,3.759,3.759,0,0,1-.93-2.96,3.842,3.842,0,0,1,1.38-2.82,4.817,4.817,0,0,1,3.51-.85Zm-32.97,1.96q3.21-1.59,5.11-6.31,1.89-4.68.67-8.06a8.055,8.055,0,0,0-4.87-4.83,8.164,8.164,0,0,0-6.86.08q-3.21,1.56-5.12,6.29c-1.26,3.16-1.48,5.86-.66,8.12a8.2,8.2,0,0,0,4.87,4.84A8.086,8.086,0,0,0,1231.32,2210.23Zm-9.36-5.61a9.69,9.69,0,0,1,.73-6.25,9.443,9.443,0,0,1,3.78-4.97,5.871,5.871,0,0,1,8.27,3.32c0.5,1.68.25,3.74-.73,6.2a9.787,9.787,0,0,1-3.79,5.03A5.747,5.747,0,0,1,1221.96,2204.62Zm-24.61-10.1,1.98,1.57,12.46-15.81-9.02-7.11-1.37,1.73,7.04,5.55Zm-21.06-20.81,1.53,2.01,16.03-12.17-6.94-9.15-1.76,1.34,5.42,7.13Zm-12.67-25.19q3.345,1.275,8.1-.54,4.725-1.8,6.37-4.98a8.85,8.85,0,0,0-4.48-11.83q-3.315-1.3-8.09.51t-6.4,5.03A8.807,8.807,0,0,0,1163.62,2148.52Zm-2.24-10.69a9.661,9.661,0,0,1,5.09-3.7c2.48-.94,4.54-1.15,6.21-0.61a5.418,5.418,0,0,1,3.5,3.45,5.361,5.361,0,0,1-.33,4.88q-1.32,2.265-5.04,3.67a9.755,9.755,0,0,1-6.26.64A5.747,5.747,0,0,1,1161.38,2137.83Zm-9.29-24.94,0.2,2.52,20.07-1.57-0.9-11.45-2.2.17,0.7,8.93Zm2.93-28q2.13,2.88,7.11,3.91c3.3,0.69,5.99.43,8.06-.76a8.1,8.1,0,0,0,3.9-5.64,8.184,8.184,0,0,0-1.3-6.75q-2.1-2.88-7.09-3.92c-3.33-.69-6.04-0.43-8.11.78A8.819,8.819,0,0,0,1155.02,2084.89Zm3.87-10.21a9.762,9.762,0,0,1,6.29-.38,9.433,9.433,0,0,1,5.55,2.84,5.873,5.873,0,0,1-1.81,8.73,9.529,9.529,0,0,1-6.22.37,9.805,9.805,0,0,1-5.62-2.83A5.75,5.75,0,0,1,1158.89,2074.68Zm5.62-26.03-1.19,2.23,17.74,9.5,5.43-10.13-1.95-1.04-4.23,7.9Z" transform="translate(-1152.09 -1986.09)"/>
</svg>
